<?xml version="1.0" standalone="no"?><!DOCTYPE svg PUBLIC "-//W3C//DTD SVG 1.1//EN" "http://www.w3.org/Graphics/SVG/1.1/DTD/svg11.dtd"><svg t="1609736926476" class="icon" viewBox="0 0 1024 1024" version="1.1" xmlns="http://www.w3.org/2000/svg" p-id="1168" xmlns:xlink="http://www.w3.org/1999/xlink" width="200" height="200"><defs><style type="text/css">html, * { user-select: text !important; }
</style></defs><path d="M588.2 157.3c-10.3-5-22.6-3.7-31.6 3.3L294.9 365H172c-16.6 0-30 13.4-30 30v255c0 16.6 13.4 30 30 30h123.7l262 184.3c5.1 3.6 11.2 5.5 17.3 5.5 4.7 0 9.5-1.1 13.8-3.4 9.9-5.2 16.2-15.4 16.2-26.6V184.3c0-11.5-6.5-22-16.8-27zM545 782L322.4 625.5c-5.1-3.6-11.1-5.5-17.3-5.5H202V425h103.2c6.7 0 13.2-2.2 18.5-6.4L545 245.8V782z m141.7-418.3c5.7 5.1 12.9 7.6 20 7.6 8.3 0 16.5-3.4 22.4-10l98.5-110.4c11-12.4 10-31.3-2.4-42.4-12.4-11-31.3-10-42.4 2.4l-98.5 110.4c-11 12.4-10 31.3 2.4 42.4z m42.4 298.2c-11-12.4-30-13.4-42.4-2.4-12.4 11-13.4 30-2.4 42.4l98.5 110.4c5.9 6.6 14.1 10 22.4 10 7.1 0 14.2-2.5 20-7.6 12.4-11 13.4-30 2.4-42.4l-98.5-110.4zM864 482H740c-16.6 0-30 13.4-30 30s13.4 30 30 30h124c16.6 0 30-13.4 30-30s-13.4-30-30-30z" p-id="1169" fill="#d81e06"></path></svg>